<svg width="100" height="100" viewBox="0 0 100 100" fill="none" xmlns="http://www.w3.org/2000/svg">
<path d="M66.921 47.8544L75.2106 39.5618C76.3097 38.4624 76.9271 36.9715 76.9271 35.4169C76.9271 33.8624 76.3097 32.3715 75.2106 31.2721L68.9963 25.0519C68.4519 24.5073 67.8055 24.0752 67.0941 23.7805C66.3826 23.4857 65.6201 23.334 64.85 23.334C64.0799 23.334 63.3174 23.4857 62.606 23.7805C61.8945 24.0752 61.2481 24.5073 60.7037 25.0519L52.4141 33.3445" stroke="black" stroke-width="5" stroke-linecap="round" stroke-linejoin="round"/>
<path d="M24.4278 75.8357L41.6654 58.334M66.5738 48.8855L60.9897 65.6378C60.9006 65.9063 60.748 66.1494 60.5449 66.3464C60.3418 66.5433 60.0941 66.6884 59.823 66.7693L25.5915 76.9437C25.2831 77.0353 24.9555 77.0406 24.6443 76.9589C24.3332 76.8772 24.0504 76.7118 23.8267 76.4806C23.603 76.2493 23.447 75.9612 23.3758 75.6475C23.3045 75.3337 23.3206 75.0065 23.4224 74.7013L34.5378 41.3609C34.6175 41.1215 34.7477 40.9021 34.9197 40.7175C35.0916 40.5329 35.3013 40.3874 35.5344 40.291L51.3252 33.7894C51.6463 33.6568 51.9994 33.6223 52.34 33.6901C52.6806 33.7579 52.9936 33.9251 53.2394 34.1705L66.1487 47.0857C66.3797 47.3167 66.5418 47.6074 66.6169 47.9253C66.692 48.2431 66.677 48.5756 66.5738 48.8855Z" stroke="#70BF29" stroke-width="5" stroke-linecap="round" stroke-linejoin="round"/>
<circle cx="46.6667" cy="53.3337" r="5" stroke="#70BF29" stroke-width="3.33333"/>
</svg>
