<svg width="100" height="100" viewBox="0 0 100 100" fill="none" xmlns="http://www.w3.org/2000/svg">
<path d="M40.0013 21.6691H26.668V88.3357H76.668V21.6691H65.0013H63.3346M63.3346 21.6691V25.0024H40.0013V18.3357C45.0013 11.6673 58.3346 11.666 63.3346 18.3357V21.6691Z" stroke="black" stroke-width="3.33333"/>
<path d="M45.418 81.668V86.668H62.0846V81.668L58.7513 78.3347H55.418V51.668C55.418 48.3335 52.0846 48.3337 52.0846 51.668V78.3347H48.7513L45.418 81.668Z" fill="black" stroke="black" stroke-width="3.33333"/>
<path d="M65.4189 61.6667V55H53.7513H41.668V61.6667M65.4189 61.6667C70.4189 61.6667 70.4189 71.6667 65.4189 71.6667C60.4189 71.6667 60.4189 61.6667 65.4189 61.6667ZM41.668 61.6667C46.668 61.6667 46.668 71.6667 41.668 71.6667C36.668 71.6667 36.668 61.6667 41.668 61.6667Z" stroke="#70BF29" stroke-width="3.33333"/>
<path d="M36.668 31.667H68.3346" stroke="black" stroke-width="3.33333"/>
<path d="M36.668 38.334H68.3346" stroke="black" stroke-width="3.33333"/>
<path d="M36.668 45H68.3346" stroke="black" stroke-width="3.33333"/>
</svg>
