<svg width="100" height="100" viewBox="0 0 100 100" fill="none" xmlns="http://www.w3.org/2000/svg">
<path d="M50.0013 13.334C36.6603 13.334 25.4167 23.054 21.7962 36.3295C18.5603 38.3781 16.668 42.3243 16.668 46.9444C16.668 53.6428 20.5526 59.0743 26.9244 59.0743C27.6044 59.0743 28.2566 58.7903 28.7375 58.2848C29.2183 57.7793 29.4885 57.0937 29.4885 56.3788V37.5101C29.4885 36.2702 28.65 35.2971 27.5654 34.9817C31.309 25.3264 39.95 18.5606 50.0013 18.5606C60.0526 18.5606 68.6936 25.3264 72.4372 34.9844C71.3526 35.2998 70.5141 36.2702 70.5141 37.5101V56.3788C70.5141 57.0937 70.7843 57.7793 71.2651 58.2848C71.746 58.7903 72.3982 59.0743 73.0782 59.0743C73.6757 59.0743 74.209 58.9988 74.7603 58.9045C73.9321 63.9343 71.9218 67.6838 69.8731 70.2796C68.8241 71.6195 67.612 72.8085 66.268 73.8161C65.8869 74.1017 65.4847 74.355 65.0654 74.5735C64.9167 74.649 64.7936 74.7191 64.7449 74.7434H59.9372C59.0141 71.9238 56.0757 69.8564 52.5654 69.8564C48.3167 69.8564 44.8731 72.8754 44.8731 76.5952C44.8731 80.315 48.3167 83.334 52.5654 83.334C56.0757 83.334 59.0141 81.2638 59.9372 78.447H64.9859C65.8526 78.447 66.0731 78.2044 66.5885 77.9429C67.1013 77.6788 67.709 77.3203 68.35 76.8486C69.6321 75.9051 71.1833 74.5304 72.6782 72.6355C75.3808 69.2121 77.8987 64.1311 78.5269 57.306C81.5526 55.1927 83.3346 51.3974 83.3346 46.9444C83.3346 42.3243 81.4423 38.3808 78.2064 36.3295C74.5859 23.054 63.3423 13.3367 50.0013 13.3367V13.334Z" fill="black"/>
<path d="M34.3673 47.3673V42.8673C34.3673 41.7562 34.7451 40.8895 35.5007 40.2673C36.2562 39.6451 37.2673 39.334 38.534 39.334C39.8229 39.334 40.8451 39.6229 41.6007 40.2007C42.3562 40.7562 42.734 41.4895 42.734 42.4007V46.534C42.734 46.934 42.4451 47.2118 41.8673 47.3673C41.5562 47.4562 41.2451 47.5007 40.934 47.5007C40.6229 47.5007 40.3118 47.4673 40.0007 47.4007C40.0673 46.8673 40.1007 46.3007 40.1007 45.7007V42.8673C40.1007 42.4451 39.9562 42.1229 39.6673 41.9007C39.3784 41.6562 39.0007 41.534 38.534 41.534C38.0673 41.534 37.6895 41.6562 37.4007 41.9007C37.134 42.1229 37.0007 42.4451 37.0007 42.8673V46.7673C37.0007 47.5451 37.2562 48.0895 37.7673 48.4007L41.3007 50.6673C42.3007 51.2895 42.8007 52.2451 42.8007 53.534V58.134C42.8007 59.2451 42.4118 60.1118 41.634 60.734C40.8562 61.3562 39.8229 61.6673 38.534 61.6673C37.2673 61.6673 36.2451 61.3895 35.4673 60.834C34.6895 60.2562 34.3007 59.5118 34.3007 58.6007V54.4673C34.3007 54.0673 34.5895 53.7895 35.1673 53.634C35.4784 53.5451 35.7895 53.5007 36.1007 53.5007C36.4118 53.5007 36.7229 53.534 37.034 53.6007C36.9673 54.134 36.934 54.7007 36.934 55.3007V58.134C36.934 58.534 37.0895 58.8562 37.4007 59.1007C37.7118 59.3451 38.1007 59.4673 38.5673 59.4673C39.034 59.4673 39.4118 59.3451 39.7007 59.1007C40.0118 58.8562 40.1673 58.534 40.1673 58.134V54.3673C40.1673 53.5007 39.8673 52.8784 39.2673 52.5007L35.734 50.2007C34.8229 49.6229 34.3673 48.6784 34.3673 47.3673ZM49.4158 50.0673C50.2158 50.0673 50.8158 50.0118 51.2158 49.9007C51.3935 50.5229 51.4824 51.134 51.4824 51.734C51.4824 52.0895 51.3269 52.2673 51.0158 52.2673H49.0491C48.5824 52.2673 48.2046 52.3895 47.9158 52.634C47.6491 52.8784 47.5158 53.2007 47.5158 53.6007V58.134C47.5158 58.5562 47.6491 58.8895 47.9158 59.134C48.2046 59.3562 48.5824 59.4673 49.0491 59.4673C49.5158 59.4673 49.8935 59.3562 50.1824 59.134C50.4713 58.8895 50.6158 58.5562 50.6158 58.134V57.3007L50.5158 55.6007C50.8269 55.534 51.138 55.5007 51.4491 55.5007C51.7602 55.5007 52.0713 55.5451 52.3824 55.634C52.9602 55.7895 53.2491 56.0673 53.2491 56.4673V58.6007C53.2491 59.5118 52.8713 60.2562 52.1158 60.834C51.3602 61.3895 50.338 61.6673 49.0491 61.6673C47.7824 61.6673 46.7713 61.3562 46.0158 60.734C45.2602 60.1118 44.8824 59.2451 44.8824 58.134V53.4673C44.8824 52.4673 45.2046 51.7007 45.8491 51.1673C45.2046 50.634 44.8824 49.8673 44.8824 48.8673V42.8673C44.8824 41.7562 45.2602 40.8895 46.0158 40.2673C46.7713 39.6451 47.7713 39.334 49.0158 39.334C50.2824 39.334 51.2824 39.6229 52.0158 40.2007C52.7491 40.7562 53.1158 41.4895 53.1158 42.4007V45.2007C53.1158 45.6007 52.8269 45.8784 52.2491 46.034C51.938 46.1229 51.6269 46.1673 51.3158 46.1673C51.0046 46.1673 50.6935 46.134 50.3824 46.0673C50.4491 45.534 50.4824 44.9673 50.4824 44.3673V42.8673C50.4824 41.9784 49.9935 41.534 49.0158 41.534C48.5491 41.534 48.1824 41.6562 47.9158 41.9007C47.6491 42.1229 47.5158 42.4451 47.5158 42.8673V48.734C47.5158 49.134 47.638 49.4562 47.8824 49.7007C48.1491 49.9451 48.4935 50.0673 48.9158 50.0673H49.4158ZM55.1046 58.2673V42.8673C55.1046 41.7562 55.4823 40.8895 56.2379 40.2673C56.9934 39.6451 58.0268 39.334 59.3379 39.334C60.649 39.334 61.6601 39.6229 62.3712 40.2007C63.1046 40.7784 63.4712 41.6229 63.4712 42.734V58.134C63.4712 59.2451 63.0823 60.1118 62.3046 60.734C61.549 61.3562 60.5157 61.6673 59.2046 61.6673C57.8934 61.6673 56.8823 61.3784 56.1712 60.8007C55.4601 60.2229 55.1046 59.3784 55.1046 58.2673ZM57.7379 42.8673V58.134C57.7379 58.534 57.8712 58.8562 58.1379 59.1007C58.4268 59.3451 58.8046 59.4673 59.2712 59.4673C59.7379 59.4673 60.1157 59.3562 60.4046 59.134C60.6934 58.8895 60.8379 58.5562 60.8379 58.134V42.8673C60.8379 42.4451 60.6934 42.1229 60.4046 41.9007C60.1157 41.6562 59.7379 41.534 59.2712 41.534C58.8046 41.534 58.4268 41.6562 58.1379 41.9007C57.8712 42.1229 57.7379 42.4451 57.7379 42.8673Z" fill="#70BF29"/>
</svg>
