<svg width="100" height="100" viewBox="0 0 100 100" fill="none" xmlns="http://www.w3.org/2000/svg">
<path d="M22.5659 57.4413L36.3415 39.0738M22.5659 57.4413L28.3057 67.773M22.5659 57.4413L11.5658 64.3291C3.17891 68.5187 5.97321 78.334 16.8191 73.2418M36.3415 39.0738L51.265 64.3291M36.3415 39.0738C37.3217 37.1074 40.0964 37.023 41.1944 38.9261L44.9201 45.384M51.265 64.3291L30.5979 67.4291M51.265 64.3291C53.3031 64.3291 54.5772 62.1231 53.5587 60.3577L49.7007 53.6705M28.3057 67.773L23.7138 70.0689M28.3057 67.773L30.5979 67.4291M23.7138 70.0689L19.122 72.3648C18.317 72.767 17.5473 73.0547 16.8191 73.2418M23.7138 70.0689L26.5803 73.5128M16.8191 73.2418L22.5589 80.4006C28.3057 88.4363 35.1864 84.9924 29.4467 76.9567L26.5803 73.5128M44.9201 45.384L49.7007 53.6705M44.9201 45.384C47.9349 44.0459 52.406 49.4055 49.7007 53.6705M51.265 39.0738V33.334M55.8499 43.6657L63.8857 39.0738M58.1458 49.4055L66.1816 51.7014M30.5979 67.4291C32.5335 70.9409 31.8018 72.3817 26.5803 73.5128" stroke="black" stroke-width="2.29593" stroke-linecap="round"/>
<path d="M81.1487 26.8064L81.743 27.3492L82.3061 26.7742L93.4701 15.3758V32.5007H68.4701V15.224L81.1487 26.8064ZM69.7845 14.1673H92.3207L81.6786 25.033L69.7845 14.1673Z" stroke="#70BF29" stroke-width="1.66667"/>
</svg>
