<svg width="100" height="100" viewBox="0 0 100 100" fill="none" xmlns="http://www.w3.org/2000/svg">
<path d="M56.6801 48.333H38.3468C33.3414 48.333 33.3337 56.6663 38.3468 56.6663H56.6801C63.3333 56.6663 63.3333 48.333 56.6801 48.333Z" stroke="black" stroke-width="3.33333"/>
<path d="M56.6801 31.667H38.3468C33.3414 31.667 33.3337 40.0003 38.3468 40.0003H56.6801C63.3333 40.0003 63.3333 31.667 56.6801 31.667Z" stroke="black" stroke-width="3.33333"/>
<path d="M56.6801 65H38.3468C33.3414 65 33.3337 73.3333 38.3468 73.3333H56.6801C63.3333 73.3333 63.3333 65 56.6801 65Z" stroke="black" stroke-width="3.33333"/>
<path d="M75 63.333L88.3333 76.6663C93.3333 81.6663 90 88.333 83.3333 81.6663L70 68.333" stroke="black" stroke-width="3.33333"/>
<path d="M51.6667 10H10V88.3333H68.3333V71.6667M51.6667 10H55L68.3333 21.6667V25M51.6667 10V25H68.3333M68.3333 25V33.3333" stroke="black" stroke-width="3.33333"/>
<mask id="path-6-inside-1_2288_49" fill="white">
<path d="M80 51.667C80 62.7127 71.0457 71.667 60 71.667C48.9543 71.667 40 62.7127 40 51.667C40 40.6213 48.9543 31.667 60 31.667C71.0457 31.667 80 40.6213 80 51.667ZM47.0875 51.667C47.0875 58.7984 52.8686 64.5795 60 64.5795C67.1314 64.5795 72.9125 58.7984 72.9125 51.667C72.9125 44.5356 67.1314 38.7545 60 38.7545C52.8686 38.7545 47.0875 44.5356 47.0875 51.667Z"/>
</mask>
<path d="M80 51.667C80 62.7127 71.0457 71.667 60 71.667C48.9543 71.667 40 62.7127 40 51.667C40 40.6213 48.9543 31.667 60 31.667C71.0457 31.667 80 40.6213 80 51.667ZM47.0875 51.667C47.0875 58.7984 52.8686 64.5795 60 64.5795C67.1314 64.5795 72.9125 58.7984 72.9125 51.667C72.9125 44.5356 67.1314 38.7545 60 38.7545C52.8686 38.7545 47.0875 44.5356 47.0875 51.667Z" fill="#70BF29" stroke="#70BF29" stroke-width="6.66667" mask="url(#path-6-inside-1_2288_49)"/>
<circle cx="59.9993" cy="51.6663" r="11.6667" stroke="black" stroke-width="3.33333"/>
<circle cx="23.3327" cy="68.3337" r="5" stroke="black" stroke-width="3.33333"/>
<circle cx="23.3327" cy="51.6667" r="5" stroke="black" stroke-width="3.33333"/>
<circle cx="23.3327" cy="34.9997" r="5" stroke="black" stroke-width="3.33333"/>
</svg>
