<svg width="100" height="100" viewBox="0 0 100 100" fill="none" xmlns="http://www.w3.org/2000/svg">
<path d="M11.6667 33.3333H88.3333V80C88.3333 82.7614 86.0948 85 83.3333 85H16.6667C13.9052 85 11.6667 82.7614 11.6667 80V33.3333ZM88.3333 30H11.6667V16.6667C11.6667 13.9052 13.9052 11.6667 16.6667 11.6667H83.3333C86.0948 11.6667 88.3333 13.9052 88.3333 16.6667V30Z" stroke="black" stroke-width="3.33333"/>
<circle cx="41.666" cy="21.667" r="3.66667" stroke="black" stroke-width="2.66667"/>
<circle cx="25" cy="21.667" r="3.66667" stroke="black" stroke-width="2.66667"/>
<path d="M60 46.667L70 56.667L60 68.3337" stroke="#70BF29" stroke-width="3.33333" stroke-linecap="round"/>
<path d="M40 46.667L30 56.667L40 68.3337" stroke="#70BF29" stroke-width="3.33333" stroke-linecap="round"/>
<path d="M53.334 43.334L48.334 68.334" stroke="#70BF29" stroke-width="3.33333" stroke-linecap="round"/>
</svg>
