<svg width="100" height="100" viewBox="0 0 100 100" fill="none" xmlns="http://www.w3.org/2000/svg">
<path d="M21.5952 57.4403L35.3708 39.0728M21.5952 57.4403L27.335 67.772M21.5952 57.4403L10.5951 64.3281C2.20821 68.5178 5.00251 78.333 15.8484 73.2408M35.3708 39.0728L50.2943 64.3281M35.3708 39.0728C36.351 37.1064 39.1257 37.022 40.2237 38.9252L43.9494 45.3831M50.2943 64.3281L29.6272 67.4282M50.2943 64.3281C52.3324 64.3281 53.6065 62.1221 52.588 60.3567L48.73 53.6695M27.335 67.772L22.7431 70.0679M27.335 67.772L29.6272 67.4282M22.7431 70.0679L18.1513 72.3638C17.3463 72.766 16.5766 73.0537 15.8484 73.2408M22.7431 70.0679L25.6096 73.5118M15.8484 73.2408L21.5882 80.3996C27.335 88.4354 34.2157 84.9915 28.476 76.9557L25.6096 73.5118M43.9494 45.3831L48.73 53.6695M43.9494 45.3831C46.9642 44.045 51.4353 49.4045 48.73 53.6695M50.2943 39.0728V33.333M54.8792 43.6647L62.915 39.0728M57.1751 49.4045L65.2109 51.7005M29.6272 67.4282C31.5628 70.94 30.8311 72.3808 25.6096 73.5118" stroke="black" stroke-width="2.29593" stroke-linecap="round"/>
<path d="M50.293 39.0728V33.333M54.8779 43.6647L62.9136 39.0728M57.1738 49.4045L65.2096 51.7005" stroke="#70BF29" stroke-width="2.29593" stroke-linecap="round"/>
<rect x="40.8333" y="4.16634" width="18.3333" height="18.3333" rx="5.83333" stroke="black" stroke-width="1.66667"/>
<path d="M51.0986 12.3128L55.9554 6.66699H54.8044L50.5873 11.5691L47.219 6.66699H43.334L48.4275 14.0799L43.334 20.0003H44.485L48.9386 14.8236L52.4957 20.0003H56.3807L51.0983 12.3128H51.0986ZM49.5221 14.1451L49.006 13.407L44.8997 7.53345H46.6676L49.9813 12.2737L50.4973 13.0118L54.8049 19.1732H53.0372L49.5221 14.1454V14.1451Z" fill="black"/>
<g clip-path="url(#clip0_2288_97)">
<path d="M79.134 46.667H87.534C90.734 46.667 93.334 49.267 93.334 52.467V60.867C93.334 62.4052 92.7229 63.8805 91.6352 64.9682C90.5475 66.0559 89.0722 66.667 87.534 66.667H79.134C75.934 66.667 73.334 64.067 73.334 60.867V52.467C73.334 50.9287 73.9451 49.4535 75.0328 48.3658C76.1205 47.2781 77.5957 46.667 79.134 46.667ZM78.934 48.667C77.9792 48.667 77.0635 49.0463 76.3884 49.7214C75.7133 50.3965 75.334 51.3122 75.334 52.267V61.067C75.334 63.057 76.944 64.667 78.934 64.667H87.734C88.6888 64.667 89.6044 64.2877 90.2796 63.6126C90.9547 62.9374 91.334 62.0218 91.334 61.067V52.267C91.334 50.277 89.724 48.667 87.734 48.667H78.934ZM88.584 50.167C88.9155 50.167 89.2334 50.2987 89.4679 50.5331C89.7023 50.7675 89.834 51.0855 89.834 51.417C89.834 51.7485 89.7023 52.0665 89.4679 52.3009C89.2334 52.5353 88.9155 52.667 88.584 52.667C88.2525 52.667 87.9345 52.5353 87.7001 52.3009C87.4657 52.0665 87.334 51.7485 87.334 51.417C87.334 51.0855 87.4657 50.7675 87.7001 50.5331C87.9345 50.2987 88.2525 50.167 88.584 50.167ZM83.334 51.667C84.6601 51.667 85.9318 52.1938 86.8695 53.1315C87.8072 54.0691 88.334 55.3409 88.334 56.667C88.334 57.9931 87.8072 59.2648 86.8695 60.2025C85.9318 61.1402 84.6601 61.667 83.334 61.667C82.0079 61.667 80.7361 61.1402 79.7985 60.2025C78.8608 59.2648 78.334 57.9931 78.334 56.667C78.334 55.3409 78.8608 54.0691 79.7985 53.1315C80.7361 52.1938 82.0079 51.667 83.334 51.667ZM83.334 53.667C82.5383 53.667 81.7753 53.9831 81.2127 54.5457C80.6501 55.1083 80.334 55.8713 80.334 56.667C80.334 57.4626 80.6501 58.2257 81.2127 58.7883C81.7753 59.3509 82.5383 59.667 83.334 59.667C84.1296 59.667 84.8927 59.3509 85.4553 58.7883C86.0179 58.2257 86.334 57.4626 86.334 56.667C86.334 55.8713 86.0179 55.1083 85.4553 54.5457C84.8927 53.9831 84.1296 53.667 83.334 53.667Z" fill="black"/>
</g>
<path d="M80 22.3076C77.1031 22.3076 74.5431 22.6076 72.9808 22.8368C71.6885 23.0261 70.6462 23.9992 70.4085 25.2884C70.2077 26.3853 70 27.9899 70 29.9999C70 32.0099 70.2077 33.6153 70.4085 34.7115C70.6462 36.0007 71.6885 36.9768 72.9808 37.1638C74.55 37.3915 77.1185 37.6922 80 37.6922C82.8815 37.6922 85.4508 37.3922 87.0192 37.163C88.3115 36.9768 89.3538 36.0007 89.5915 34.7115C89.7923 33.6115 90 32.0038 90 29.9999C90 27.9961 89.7954 26.3884 89.5915 25.2884C89.3538 23.9992 88.3115 23.0261 87.0192 22.8361C85.4569 22.6084 82.8962 22.3076 80 22.3076ZM80 23.8461C82.7946 23.8461 85.2915 24.1315 86.8031 24.3507C87.1172 24.3956 87.4092 24.5382 87.6379 24.7582C87.8665 24.9783 88.0201 25.2647 88.0769 25.5768C88.2631 26.5922 88.4615 28.0976 88.4615 29.9999C88.4615 31.8992 88.2631 33.4076 88.0769 34.423C88.0211 34.7356 87.8678 35.0226 87.639 35.2428C87.4102 35.463 87.1176 35.6053 86.8031 35.6492C85.2846 35.8684 82.7762 36.1538 80 36.1538C77.2231 36.1538 74.7115 35.8684 73.1969 35.6492C72.8826 35.6047 72.5903 35.4623 72.3616 35.2421C72.133 35.022 71.9795 34.7354 71.9231 34.423C71.7369 33.4076 71.5385 31.9053 71.5385 29.9999C71.5385 28.0922 71.7369 26.5922 71.9231 25.5768C71.9795 25.2645 72.133 24.9778 72.3616 24.7577C72.5903 24.5376 72.8826 24.3951 73.1969 24.3507C74.7054 24.1315 77.2054 23.8461 80 23.8461ZM77.6923 25.6007V34.3999L78.8462 33.7507L84.2308 30.6738L85.3846 29.9999L84.2308 29.3268L78.8462 26.2499L77.6923 25.6007ZM79.2308 28.2453L82.2838 29.9999L79.2308 31.7545V28.2453Z" fill="black"/>
<defs>
<clipPath id="clip0_2288_97">
<rect width="20" height="20" fill="white" transform="translate(73.334 46.667)"/>
</clipPath>
</defs>
</svg>
