<svg width="100" height="100" viewBox="0 0 100 100" fill="none" xmlns="http://www.w3.org/2000/svg">
<path d="M51.6673 10.0029C40.1802 10.0029 26.6655 12.7628 15.1264 18.7652L13.334 19.6876V21.7451C13.334 34.1147 13.5642 67.1236 49.9764 88.9705L51.6673 90.0004L53.3582 88.9705C89.7704 67.1236 90.0006 34.1147 90.0006 21.7451V19.7151L88.2206 18.7777C76.8226 12.7478 63.1544 10.0029 51.6673 10.0029ZM51.6673 16.7102C61.4933 16.7102 73.4062 19.2476 83.2693 24.04C83.2421 36.9971 81.8903 62.5163 51.6673 81.7982C21.4443 62.5163 20.0777 36.9971 20.0653 24.04C30.0844 19.2376 41.8414 16.7102 51.6673 16.7102ZM68.2865 35.2621C67.4225 35.2896 66.6897 35.8346 66.2763 36.2521L48.5207 54.859L41.8661 46.8118C38.7195 43.1294 34.402 45.9793 33.4092 46.6418L48.8451 64.7412L69.9254 35.9121C69.7084 35.7005 69.4521 35.5341 69.1713 35.4226C68.8905 35.3111 68.5882 35.2565 68.2865 35.2621Z" fill="black"/>
<path d="M68.2894 35.2641C67.4254 35.2916 66.6926 35.8365 66.2792 36.254L48.5236 54.861L41.869 46.8137C38.7224 43.1313 34.4049 45.9812 33.4121 46.6437L48.8479 64.7431L69.9283 35.914C69.7112 35.7024 69.455 35.536 69.1742 35.4245C68.8934 35.313 68.5911 35.2585 68.2894 35.2641Z" fill="#70BF29"/>
</svg>
