<svg width="100" height="100" viewBox="0 0 100 100" fill="none" xmlns="http://www.w3.org/2000/svg">
<path d="M28.3376 48.3327L48.3376 21.6661M28.3376 48.3327L36.6709 63.3327M28.3376 48.3327L16.6709 54.9994C4.49443 61.0822 1.06003 76.6661 19.9941 71.2726M48.3376 21.6661L70.0042 58.3327M48.3376 21.6661C49.7607 18.8111 53.7892 18.6885 55.3833 21.4516L60.7924 30.8275M70.0042 58.3327L39.9988 62.8335M70.0042 58.3327C72.9633 58.3327 74.8131 55.13 73.3344 52.5669L67.7332 42.8581M36.6709 63.3327L30.0043 66.6661M36.6709 63.3327L39.9988 62.8335M30.0043 66.6661L23.3376 69.9994C22.1689 70.5833 21.0515 71.001 19.9941 71.2726M30.0043 66.6661L34.1659 71.6661M19.9941 71.2726L28.3275 81.6661C36.6709 93.3327 46.6606 88.3327 38.3275 76.6661L34.1659 71.6661M60.7924 30.8275L67.7332 42.8581M60.7924 30.8275C65.1694 28.8848 71.6608 36.6661 67.7332 42.8581M39.9988 62.8335C42.809 67.9322 41.7467 70.024 34.1659 71.6661" stroke="black" stroke-width="3.33333" stroke-linecap="round"/>
<path d="M70.0059 21.6663V13.333M76.6624 28.333L88.3291 21.6663M79.9958 36.6663L91.6624 39.9997" stroke="#70BF29" stroke-width="3.33333" stroke-linecap="round"/>
</svg>
