<svg width="100" height="100" viewBox="0 0 100 100" fill="none" xmlns="http://www.w3.org/2000/svg">
<path d="M57.5 44.2354L63.3333 50.0687L57.5 56.8742" stroke="#70BF29" stroke-width="1.94444" stroke-linecap="round"/>
<path d="M45.834 44.2354L40.0007 50.0687L45.834 56.8742" stroke="#70BF29" stroke-width="1.94444" stroke-linecap="round"/>
<path d="M53.6139 42.292L50.6973 56.8753" stroke="#70BF29" stroke-width="1.94444" stroke-linecap="round"/>
<path d="M58.334 20.0007H45.0007M36.6673 88.334H66.6673C68.5083 88.334 70.0007 86.8416 70.0007 85.0006V16.6673C70.0007 14.8264 68.5083 13.334 66.6673 13.334H36.6673C34.8264 13.334 33.334 14.8264 33.334 16.6673V85.0006C33.334 86.8416 34.8264 88.334 36.6673 88.334Z" stroke="black" stroke-width="3.33333" stroke-linecap="round"/>
<path d="M70.0512 73.3343C73.7331 73.3343 76.7179 70.3495 76.7179 66.6676C76.7179 62.9857 73.6819 60.001 70 60.001" stroke="black" stroke-width="3.33333"/>
<path d="M33.3335 43.3343C29.6516 43.3343 26.6669 40.3495 26.6669 36.6676C26.6669 32.9857 29.7029 30.001 33.3848 30.001" stroke="black" stroke-width="3.33333"/>
<path d="M33.3333 51.6676L23.3333 46.6676C24.8186 41.2378 23.5459 41.0012 20 38.3343V31.6676C25 30.001 25 28.3343 23.3333 23.3343L33.3333 20.001" stroke="black" stroke-width="3.33333" stroke-linecap="round"/>
<path d="M70.0007 81.6676L80.0007 76.6676C78.5153 71.2378 79.7881 71.0012 83.334 68.3343V61.6676C78.334 60.001 78.334 58.3343 80.0007 53.3343L70.0007 50.001" stroke="black" stroke-width="3.33333" stroke-linecap="round"/>
</svg>
