<svg width="100" height="100" viewBox="0 0 100 100" fill="none" xmlns="http://www.w3.org/2000/svg">
<path fill-rule="evenodd" clip-rule="evenodd" d="M71.666 36.8438C74.4658 37.6816 76.4808 37.9633 76.4808 37.9633V30.7411H81.2956C84.4881 30.7411 87.5497 29.4729 89.8071 27.2155C92.0645 24.9581 93.3327 21.8964 93.3327 18.704C93.3327 15.5116 92.0645 12.4499 89.8071 10.1926C87.5497 7.93518 84.4881 6.66699 81.2956 6.66699H67.4193C64.0762 6.66699 60.8701 7.99503 58.5061 10.359C56.1422 12.7229 54.8142 15.9291 54.8142 19.2722C54.8142 30.1488 65.2816 34.9348 71.666 36.8438ZM88.5179 18.704C88.5179 20.6195 87.7569 22.4565 86.4025 23.8109C85.0481 25.1653 83.2111 25.9263 81.2956 25.9263H71.666V31.7883C70.3452 31.3398 69.056 30.8034 67.8069 30.1825C63.0331 27.7896 59.629 24.3855 59.629 19.2722C59.629 17.206 60.4497 15.2245 61.9107 13.7636C63.3717 12.3026 65.3532 11.4818 67.4193 11.4818H81.2956C83.2111 11.4818 85.0481 12.2427 86.4025 13.5971C87.7569 14.9516 88.5179 16.7886 88.5179 18.704ZM27.8921 35.539C24.7373 35.4298 21.7517 34.0851 19.5791 31.7949C17.4066 29.5046 16.2211 26.4524 16.2783 23.2961C16.3354 20.1399 17.6307 17.1325 19.8847 14.9225C22.1388 12.7124 25.1711 11.4767 28.3279 11.4818H35.9569C39.0427 11.4818 42.0021 12.7076 44.1841 14.8896C46.3661 17.0716 47.5919 20.031 47.5919 23.1168C47.5919 32.8475 38.8531 37.2964 33.1475 39.167C30.3838 40.0722 28.3327 40.3707 28.3327 40.3707V35.5559L27.8921 35.539ZM33.1475 30.912L28.0679 30.729C26.159 30.6875 24.3443 29.8914 23.0212 28.5148C21.6981 27.1383 20.9744 25.2935 21.0084 23.3845C21.0425 21.4755 21.8316 19.6578 23.203 18.3293C24.5744 17.0009 26.4163 16.27 28.3255 16.2966H35.9545C36.8504 16.2963 37.7375 16.4725 38.5652 16.8151C39.393 17.1577 40.1451 17.66 40.7787 18.2934C41.4123 18.9267 41.9148 19.6787 42.2577 20.5063C42.6006 21.3339 42.7771 22.221 42.7771 23.1168C42.7771 27.727 39.8473 30.7483 35.7379 32.8909C34.8712 33.3435 33.9925 33.7287 33.1475 34.0561V30.912ZM59.629 50.0003C59.629 55.3207 55.3197 59.63 49.9993 59.63C44.679 59.63 40.3697 55.3207 40.3697 50.0003C40.3697 44.68 44.679 40.3707 49.9993 40.3707C55.3197 40.3707 59.629 44.68 59.629 50.0003ZM54.8142 50.0003C54.8142 51.2773 54.3069 52.502 53.4039 53.4049C52.501 54.3079 51.2763 54.8151 49.9993 54.8151C48.7224 54.8151 47.4977 54.3079 46.5948 53.4049C45.6918 52.502 45.1845 51.2773 45.1845 50.0003C45.1845 48.7234 45.6918 47.4987 46.5948 46.5957C47.4977 45.6928 48.7224 45.1855 49.9993 45.1855C51.2763 45.1855 52.501 45.6928 53.4039 46.5957C54.3069 47.4987 54.8142 48.7234 54.8142 50.0003ZM37.9623 54.8151C37.9623 60.1355 33.6531 64.4448 28.3327 64.4448C23.0123 64.4448 18.7031 60.1355 18.7031 54.8151C18.7031 49.4948 23.0123 45.1855 28.3327 45.1855C33.6531 45.1855 37.9623 49.4948 37.9623 54.8151ZM33.1475 54.8151C33.1475 56.0921 32.6402 57.3168 31.7373 58.2197C30.8343 59.1227 29.6097 59.63 28.3327 59.63C27.0557 59.63 25.831 59.1227 24.9281 58.2197C24.0251 57.3168 23.5179 56.0921 23.5179 54.8151C23.5179 53.5382 24.0251 52.3135 24.9281 51.4106C25.831 50.5076 27.0557 50.0003 28.3327 50.0003C29.6097 50.0003 30.8343 50.5076 31.7373 51.4106C32.6402 52.3135 33.1475 53.5382 33.1475 54.8151ZM6.66602 80.2037C6.66602 72.9237 21.1008 69.2596 28.3327 69.2596C29.741 69.2596 31.4238 69.3992 33.2197 69.6761C36.4481 67.3096 42.3606 64.4448 49.9993 64.4448C57.6356 64.4448 63.5506 67.3096 66.7814 69.6761C68.3969 69.4155 70.0297 69.2763 71.666 69.2596C78.8979 69.2596 93.3327 72.9261 93.3327 80.2012V93.3337H6.66602V80.2037ZM44.3468 78.9446C45.1845 79.7246 45.1845 80.1314 45.1845 80.2012V88.5188H11.4808V80.2012C11.4808 80.129 11.4808 79.7246 12.3186 78.9446C13.1925 78.1285 14.6345 77.2594 16.5942 76.465C20.5231 74.8761 25.3234 74.0744 28.3327 74.0744C31.3419 74.0744 36.1423 74.8761 40.0712 76.465C42.0308 77.2594 43.4729 78.1285 44.3468 78.9446ZM59.9708 71.3203C56.8238 69.9557 53.4294 69.2542 49.9993 69.2596C46.0127 69.2596 42.6231 70.1888 40.0303 71.3203C45.3627 73.1114 49.9993 76.0774 49.9993 80.2037C49.9993 76.0774 54.636 73.1138 59.9708 71.3203ZM88.5179 80.2037C88.5179 80.1314 88.5179 79.7246 87.6801 78.9446C86.8062 78.1285 85.3642 77.2594 83.4045 76.465C79.4756 74.8761 74.6753 74.0744 71.666 74.0744C68.6568 74.0744 63.8564 74.8761 59.9275 76.465C57.9679 77.2594 56.5258 78.1285 55.6519 78.9446C54.8142 79.7246 54.8142 80.1314 54.8142 80.2012V88.5188H88.5179V80.2037ZM71.666 64.4448C76.9864 64.4448 81.2956 60.1355 81.2956 54.8151C81.2956 49.4948 76.9864 45.1855 71.666 45.1855C66.3456 45.1855 62.0364 49.4948 62.0364 54.8151C62.0364 60.1355 66.3456 64.4448 71.666 64.4448ZM71.666 59.63C72.943 59.63 74.1677 59.1227 75.0706 58.2197C75.9736 57.3168 76.4808 56.0921 76.4808 54.8151C76.4808 53.5382 75.9736 52.3135 75.0706 51.4106C74.1677 50.5076 72.943 50.0003 71.666 50.0003C70.389 50.0003 69.1644 50.5076 68.2614 51.4106C67.3585 52.3135 66.8512 53.5382 66.8512 54.8151C66.8512 56.0921 67.3585 57.3168 68.2614 58.2197C69.1644 59.1227 70.389 59.63 71.666 59.63Z" fill="black"/>
<path fill-rule="evenodd" clip-rule="evenodd" d="M71.6651 36.8438C74.4649 37.6816 76.4799 37.9633 76.4799 37.9633V30.7411H81.2948C84.4872 30.7411 87.5488 29.4729 89.8062 27.2155C92.0636 24.9581 93.3318 21.8964 93.3318 18.704C93.3318 15.5116 92.0636 12.4499 89.8062 10.1926C87.5488 7.93518 84.4872 6.66699 81.2948 6.66699H67.4185C64.0754 6.66699 60.8692 7.99503 58.5052 10.359C56.1413 12.7229 54.8133 15.9291 54.8133 19.2722C54.8133 30.1488 65.2807 34.9348 71.6651 36.8438ZM88.517 18.704C88.517 20.6195 87.7561 22.4565 86.4016 23.8109C85.0472 25.1653 83.2102 25.9263 81.2948 25.9263H71.6651V31.7883C70.3444 31.3398 69.0551 30.8034 67.8061 30.1825C63.0322 27.7896 59.6281 24.3855 59.6281 19.2722C59.6281 17.206 60.4489 15.2245 61.9098 13.7636C63.3708 12.3026 65.3523 11.4818 67.4185 11.4818H81.2948C83.2102 11.4818 85.0472 12.2427 86.4016 13.5971C87.7561 14.9516 88.517 16.7886 88.517 18.704ZM27.8912 35.539C24.7364 35.4298 21.7508 34.0851 19.5782 31.7949C17.4057 29.5046 16.2202 26.4524 16.2774 23.2961C16.3345 20.1399 17.6298 17.1325 19.8839 14.9225C22.1379 12.7124 25.1702 11.4767 28.327 11.4818H35.9561C39.0418 11.4818 42.0013 12.7076 44.1832 14.8896C46.3652 17.0716 47.5911 20.031 47.5911 23.1168C47.5911 32.8475 38.8522 37.2964 33.1466 39.167C30.3829 40.0722 28.3318 40.3707 28.3318 40.3707V35.5559L27.8912 35.539ZM33.1466 30.912L28.067 30.729C26.1581 30.6875 24.3434 29.8914 23.0203 28.5148C21.6972 27.1383 20.9735 25.2935 21.0075 23.3845C21.0416 21.4755 21.8307 19.6578 23.2021 18.3293C24.5735 17.0009 26.4154 16.27 28.3246 16.2966H35.9536C36.8495 16.2963 37.7366 16.4725 38.5644 16.8151C39.3921 17.1577 40.1442 17.66 40.7778 18.2934C41.4114 18.9267 41.914 19.6787 42.2569 20.5063C42.5997 21.3339 42.7762 22.221 42.7762 23.1168C42.7762 27.727 39.8464 30.7483 35.737 32.8909C34.8703 33.3435 33.9916 33.7287 33.1466 34.0561V30.912Z" fill="#70BF29"/>
</svg>
