<svg width="100" height="100" viewBox="0 0 100 100" fill="none" xmlns="http://www.w3.org/2000/svg">
<path d="M20.021 39.8661C19.9215 38.8635 19.4948 38.0846 18.7408 37.5295C17.9867 36.9743 16.9634 36.6967 15.6708 36.6967C14.7925 36.6967 14.0509 36.821 13.446 37.0696C12.8411 37.3099 12.3771 37.6455 12.054 38.0763C11.7391 38.5072 11.5817 38.9961 11.5817 39.543C11.5651 39.9987 11.6604 40.3964 11.8675 40.7362C12.083 41.0759 12.3771 41.37 12.75 41.6186C13.1229 41.8589 13.5537 42.0702 14.0426 42.2525C14.5315 42.4265 15.0535 42.5756 15.6087 42.6999L17.8956 43.2468C19.0059 43.4954 20.0251 43.8268 20.9531 44.2411C21.8812 44.6554 22.6849 45.165 23.3643 45.7699C24.0438 46.3748 24.57 47.0874 24.9428 47.9077C25.324 48.728 25.5187 49.6684 25.527 50.729C25.5187 52.2868 25.121 53.6374 24.3338 54.7809C23.5549 55.9161 22.428 56.7985 20.9531 57.4283C19.4865 58.0497 17.7174 58.3604 15.646 58.3604C13.591 58.3604 11.8013 58.0456 10.2766 57.4158C8.7603 56.7861 7.5754 55.8539 6.72195 54.6193C5.87678 53.3764 5.43348 51.8394 5.39205 50.0082H10.5998C10.6578 50.8616 10.9022 51.5742 11.3331 52.146C11.7723 52.7094 12.3564 53.1361 13.0856 53.4261C13.823 53.7079 14.6558 53.8487 15.5838 53.8487C16.4953 53.8487 17.2866 53.7161 17.9577 53.451C18.6372 53.1858 19.1634 52.8171 19.5362 52.3448C19.9091 51.8725 20.0955 51.3298 20.0955 50.7166C20.0955 50.1449 19.9257 49.6643 19.5859 49.2749C19.2545 48.8854 18.7656 48.554 18.1193 48.2805C17.4813 48.0071 16.6983 47.7585 15.7702 47.5348L12.9986 46.8388C10.8525 46.3168 9.15803 45.5006 7.91513 44.3903C6.67223 43.2799 6.05492 41.7843 6.06321 39.9034C6.05492 38.3622 6.46508 37.0157 7.29368 35.864C8.13056 34.7122 9.27817 33.8132 10.7365 33.1669C12.1948 32.5206 13.852 32.1974 15.7081 32.1974C17.5973 32.1974 19.2462 32.5206 20.6548 33.1669C22.0717 33.8132 23.1738 34.7122 23.9609 35.864C24.7481 37.0157 25.1541 38.3498 25.179 39.8661H20.021ZM29.1469 58V32.5455H46.2989V36.9826H34.5287V43.0479H45.4165V47.4851H34.5287V53.5629H46.3486V58H29.1469Z" fill="black"/>
<circle cx="66.5" cy="46.5" r="15" fill="#70BF29" stroke="black" stroke-width="5"/>
<path d="M85.5 63L79.5 57.5L77.5 59.5L83.5 65C83.5 65.9564 83.8988 66.8694 84.6005 67.5193L92.4546 74.7942C92.9445 75.2479 93.5876 75.5 94.2553 75.5H94.6304C95.7093 75.5 96.63 74.72 96.8074 73.6558C96.9278 72.9331 96.6817 72.1976 96.1505 71.6929L88.0875 64.0331C87.3893 63.3698 86.463 63 85.5 63Z" fill="black" stroke="black"/>
</svg>
